# AST/ASF file generated using VICON BodyLanguage
# -----------------------------------------------
:version 1.10
:name VICON
:units
  mass 1.0
  length 0.45
  angle deg
:documentation
   .ast/.asf automatically generated from VICON data using
   VICON BodyBuilder and BodyLanguage model FoxedUp or BRILLIANT.MOD
:root
   order TX TY TZ RX RY RZ
   axis XYZ
   position 0 0 0  
   orientation 0 0 0 
:bonedata
  begin
     id 1 
     name lhipjoint
     direction 0.499407 -0.589134 0.635228 
     length 2.99786 
     axis 0 0 0  XYZ
  end
  begin
     id 2 
     name lfemur
     direction 0.34202 -0.939693 0  
     length 6.89561  
     axis 0 0 20  XYZ
    dof rx ry rz
    limits (-160.0 20.0)
           (-70.0 70.0)
           (-60.0 70.0)
  end
  begin
     id 3 
     name ltibia
     direction 0.34202 -0.939693 0   
     length 8.00494   
     axis 0 0 20   XYZ
    dof rx
    limits (-10.0 170.0)
  end
  begin
     id 4 
     name lfoot
     direction 0.0680929 -0.194353 0.978565   
     length 2.06695   
     axis -90 7.62852e-016 20   XYZ
    dof rx rz
    limits (-45.0 90.0)
           (-70.0 20.0)
  end
  begin
     id 5 
     name ltoes
     direction 1.5346e-011 -4.21731e-011 1   
     length 1.04539   
     axis -90 7.62852e-016 20   XYZ
    dof rx
    limits (-90.0 20.0)
  end
  begin
     id 6 
     name rhipjoint
     direction -0.347526 -0.63762 0.687508   
     length 2.76989  
     axis 0 0 0  XYZ 
  end
  begin
     id 7 
     name rfemur
     direction -0.34202 -0.939693 0   
     length 6.97892   
     axis 0 0 -20   XYZ
    dof rx ry rz
    limits (-160.0 20.0)
           (-70.0 70.0)
           (-70.0 60.0)
  end
  begin
     id 8 
     name rtibia
     direction -0.34202 -0.939693 0   
     length 7.77056   
     axis 0 0 -20   XYZ
    dof rx
    limits (-10.0 170.0)
 end
 begin
     id 9 
     name rfoot
     direction -0.102685 -0.282124 0.953867   
     length 2.15099  
     axis -90 -7.62852e-016 -20   XYZ
    dof rx rz
    limits (-45.0 90.0)
           (-20.0 70.0)
  end
  begin
     id 10 
     name rtoes
     direction -0.000106751 -0.00118973 0.999999   
     length 1.0765   
     axis -90 -7.62852e-016 -20   XYZ
    dof rx
    limits (-90.0 20.0)
  end
  begin
     id 11 
     name lowerback
     direction -0.0190651 0.988667 0.148909   
     length 1.90627   
     axis 0 0 0   XYZ
    dof rx ry rz
    limits (-20.0 45.0)
           (-30.0 30.0)
           (-30.0 30.0)
  end
  begin
     id 12 
     name upperback
     direction -0.0180344 0.995767 -0.0901298   
     length 1.88167   
     axis 0 0 0   XYZ
    dof rx ry rz
    limits (-20.0 45.0)
           (-30.0 30.0)
           (-30.0 30.0)
  end
  begin
     id 13 
     name thorax
     direction -0.00329861 0.986394 -0.164366   
     length 1.91528   
     axis 0 0 0   XYZ
    dof rx ry rz
    limits (-20.0 45.0)
           (-30.0 30.0)
           (-30.0 30.0)
  end
  begin
     id 14 
     name lowerneck
     direction -0.0177752 0.978637 -0.204826   
     length 2.09812   
     axis 0 0 0   XYZ
    dof rx ry rz
    limits (-20.0 45.0)
           (-30.0 30.0)
           (-30.0 30.0)
  end
  begin
     id 15 
     name upperneck
     direction 0.108032 0.994134 0.00511541   
     length 2.11937   
     axis 0 0 0   XYZ
    dof rx ry rz
    limits (-20.0 45.0)
           (-30.0 30.0)
           (-30.0 30.0)
  end
  begin
     id 16
     name head
     direction 0.0423659 0.998938 0.0181058  
     length 2.14816  
     axis 0 0 0   XYZ
    dof rx ry rz
    limits (-20.0 45.0)
           (-30.0 30.0)
           (-30.0 30.0)
  end
  begin
     id 17 
     name lclavicle
     direction 0.869509 0.396908 0.293968  
     length 4.73713  
     axis 0 0 0   XYZ
    dof ry rz
    limits (-20.0 10.0)
           (0.0 20.0)
  end
  begin
     id 18 
     name lhumerus
     direction 1 -4.49e-011 3.63829e-027   
     length 4.72096   
     axis 180 -30 -90   XYZ
    dof rx ry rz
    limits (-60.0 90.0)
           (-90.0 90.0)
           (-90.0 90.0)
  end
  begin
     id 19
     name lradius
     direction 1 -4.48932e-011 7.19196e-027   
     length 3.18148   
     axis 180 -30 -90   XYZ
    dof rx
    limits (-10.0 170.0)
  end
  begin
     id 20
     name lwrist
     direction 1 -4.48995e-011 1.85462e-026   
     length 1.59074   
     axis -1.20349e-014 90 90   XYZ
    dof ry
    limits (-180.0 0.0)
 end
  begin
     id 21 
     name lhand
     direction 1 -4.48943e-011 3.70924e-026   
     length 0.848715   
     axis -2.36681e-014 90 90   XYZ
    dof rx rz
    limits (-90.0 90.0)
           (-45.0 45.0)
  end
  begin
     id 22 
     name lfingers
     direction 1 -4.48949e-011 7.41849e-026   
     length 0.684256   
     axis -4.73363e-014 90 90   XYZ
    dof rx
    limits (0.0 90.0)
  end
  begin
     id 23
     name lthumb
     direction 0.707107 -6.35018e-011 0.707107   
     length 0.982458   
     axis -90 45 2.85299e-015   XYZ
    dof rx rz
    limits (-45.0 45.0)
           (-45.0 45.0)
  end
  begin
     id 24 
     name rclavicle
     direction -0.923214 0.372787 0.0932992   
     length 4.28107  
     axis 0 0 0   XYZ 
    dof ry rz
    limits (-10.0 20.0)
           (-20.0 0.0)
  end
  begin
     id 25 
     name rhumerus
     direction -1 -4.48968e-011 6.59881e-018  
     length 4.76918   
     axis 180 30 90   XYZ
    dof rx ry rz
    limits (-90.0 60.0)
           (-90.0 90.0)
           (-90.0 90.0)
  end
  begin
     id 26 
     name rradius
     direction -1 0.000264575 -0.000152753   
     length 3.36438   
     axis 180 30 90   XYZ
    dof rx
    limits (-10.0 170.0)
  end
  begin
     id 27 
     name rwrist
     direction -1 -4.86632e-005 -0.00030086   
     length 1.68219   
     axis -1.20349e-014 -90 -90   XYZ
    dof ry
    limits (-180.0 0.0)
  end
  begin
     id 28
     name rhand
     direction -1 -4.48915e-011 3.70924e-026   
     length 0.767694   
     axis -2.36681e-014 -90 -90   XYZ
    dof rx rz
    limits (-90.0 90.0)
           (-45.0 45.0)
  end
  begin
     id 29
     name rfingers
     direction -1 -4.49015e-011 7.41849e-026   
     length 0.618935   
     axis -4.73363e-014 -90 -90   XYZ
    dof rx
    limits (0.0 90.0)
  end
  begin
     id 30
     name rthumb
     direction -0.707107 -6.34859e-011 0.707107   
     length 0.88867   
     axis -90 -45 -2.85299e-015   XYZ
    dof rx rz
    limits (-45.0 45.0)
           (-45.0 45.0)
  end
:hierarchy
  begin
    root lhipjoint rhipjoint lowerback
    lhipjoint lfemur
    lfemur ltibia
    ltibia lfoot
    lfoot ltoes
    rhipjoint rfemur
    rfemur rtibia
    rtibia rfoot
    rfoot rtoes
    lowerback upperback
    upperback thorax
    thorax lowerneck lclavicle rclavicle
    lowerneck upperneck
    upperneck head
    lclavicle lhumerus
    lhumerus lradius
    lradius lwrist
    lwrist lhand lthumb
    lhand lfingers
    rclavicle rhumerus
    rhumerus rradius
    rradius rwrist
    rwrist rhand rthumb
    rhand rfingers
  end

#!OML:ASF C:\Documents and Settings\Administrator\Desktop\New Folder (2)\VR_Jason.ASF
:FULLY-SPECIFIED
:DEGREES
745
root -0.733737 17.4205 0.0146312 13.3944 -3.46183 2.11221
lowerback -21.6395 1.41439 -2.97605
upperback 6.30658 3.08973 -1.52517
thorax 19.146 1.09385 1.10996
lowerneck 22.5912 -2.36802 -5.17368
upperneck 0.62685 -3.49161 15.599
head -3.09352 -2.60013 6.09279
rclavicle -2.67365e-014 2.127e-014
rhumerus 6.10757 -17.7189 -58.2736
rradius 95.814
rwrist -35.932
rhand 27.3987 11.954
rfingers 7.12502
rthumb 51.3538 -8.52786
lclavicle -2.67365e-014 2.127e-014
lhumerus 22.4197 4.39289 63.1732
lradius 71.6821
lwrist 48.3562
lhand 8.02595 33.751
lfingers 7.12502
lthumb 33.2517 60.6978
rfemur -31.6271 -12.1729 23.047
rtibia 39.1976
rfoot -21.4911 -8.42589
rtoes -8.85967
lfemur -39.738 7.0763 -18.8209
ltibia 56.0902
lfoot -11.4432 15.4565
ltoes -5.5031
746
root -0.781226 17.4232 0.0188966 13.3538 -3.52947 2.47423
lowerback -21.5662 1.41793 -3.02233
upperback 5.91374 3.08782 -1.50505
thorax 19.2527 1.10595 1.08465
lowerneck 22.8558 -2.41459 -5.24178
upperneck 0.713497 -3.58632 15.5356
head -3.09385 -2.64958 6.09797
rclavicle -1.81391e-014 2.54444e-014
rhumerus 5.94965 -17.5996 -58.1241
rradius 95.7735
rwrist -35.7078
rhand 27.3361 11.9842
rfingers 7.12502
rthumb 51.2968 -8.53008
lclavicle -1.81391e-014 2.54444e-014
lhumerus 22.2473 4.13978 63.015
lradius 71.734
lwrist 48.376
lhand 8.22277 33.8467
lfingers 7.12502
lthumb 33.4388 60.7533
rfemur -31.6021 -12.0536 22.8136
rtibia 39.2751
rfoot -21.6968 -8.72549
rtoes -8.27038
lfemur -41.462 6.98836 -19.7245
ltibia 57.8435
lfoot -11.4687 15.0474
ltoes -6.96317
747
root -0.824073 17.4264 0.0342185 13.1983 -3.63297 2.80788
lowerback -21.5245 1.45738 -2.91468
upperback 6.20455 3.12897 -1.57607
thorax 18.9566 1.12798 1.02706
lowerneck 23.1142 -2.45942 -5.20425
upperneck 0.675941 -3.6439 15.3424
head -3.1364 -2.67725 6.04244
rclavicle -1.0312e-014 1.50082e-014
rhumerus 5.97846 -17.5476 -58.0347
rradius 95.6343
rwrist -35.5136
rhand 27.3312 12.128
rfingers 7.12502
rthumb 51.2924 -8.38876
lclavicle -1.0312e-014 1.50082e-014
lhumerus 22.1205 4.07631 62.9024
lradius 71.8689
lwrist 48.3325
lhand 8.56214 33.8223
lfingers 7.12502
lthumb 33.7613 60.6587
rfemur -31.3835 -11.9281 22.5464
rtibia 39.3158
rfoot -21.7742 -9.00526
rtoes -7.68867
lfemur -42.952 6.89675 -20.6333
ltibia 59.1786
lfoot -11.6773 13.7234
ltoes -9.71838
748
root -0.865703 17.432 0.0512413 12.9949 -3.68807 3.18855
lowerback -21.6745 1.43768 -2.9448
upperback 6.32392 3.12848 -1.59915
thorax 19.1942 1.11887 1.02543
lowerneck 23.2459 -2.4751 -5.10696
upperneck 0.587206 -3.64477 15.0737
head -3.18324 -2.66959 5.94442
rclavicle -2.52208e-014 1.26228e-014
rhumerus 6.27337 -17.54 -57.9982
rradius 95.3761
rwrist -35.4782
rhand 27.2849 12.3081
rfingers 7.12502
rthumb 51.2502 -8.23261
lclavicle -2.52208e-014 1.26228e-014
lhumerus 22.0063 4.15892 62.7533
lradius 72.0955
lwrist 48.3373
lhand 8.74135 33.6584
lfingers 7.12502
lthumb 33.9316 60.4573
rfemur -31.0927 -11.7016 22.1867
rtibia 39.3778
rfoot -21.999 -9.16989
rtoes -6.19133
lfemur -44.3333 6.74749 -21.6308
ltibia 60.1036
lfoot -11.8574 12.0668
ltoes -13.6631
749
root -0.907477 17.426 0.0623022 12.8219 -3.73991 3.50647
lowerback -21.7263 1.38893 -3.02187
upperback 6.42127 3.08828 -1.57554
thorax 19.3426 1.08594 1.0839
lowerneck 23.1977 -2.5042 -4.95153
upperneck 0.640512 -3.66911 14.6848
head -3.15915 -2.65581 5.79031
rclavicle -3.15136e-014 6.54747e-015
rhumerus 6.69658 -17.5132 -58.0177
rradius 95.123
rwrist -35.4899
rhand 27.3466 12.6761
rfingers 7.12502
rthumb 51.3063 -7.83276
lclavicle -3.15136e-014 6.54747e-015
lhumerus 21.9361 4.32101 62.6392
lradius 72.2732
lwrist 48.3233
lhand 8.33278 34.2641
lfingers 7.12502
lthumb 33.5434 61.1481
rfemur -30.893 -11.3011 21.8989
rtibia 39.457
rfoot -22.1621 -9.4627
rtoes -4.51167
lfemur -45.6955 6.56617 -22.6031
ltibia 60.6583
lfoot -11.5292 10.8951
ltoes -19.6228
750
root -0.946783 17.4148 0.0703003 12.6829 -3.79893 3.75467
lowerback -21.6307 1.35136 -3.06415
upperback 6.42065 3.03528 -1.52205
thorax 19.2815 1.05567 1.14481
lowerneck 23.258 -2.53651 -4.87306
upperneck 0.712935 -3.71748 14.3588
head -3.14138 -2.6606 5.67511
rclavicle 1.10698e-014 9.19379e-015
rhumerus 6.85356 -17.459 -58.0681
rradius 95.0397
rwrist -35.4547
rhand 27.5007 12.8831
rfingers 7.12502
rthumb 51.4466 -7.54557
lclavicle 1.10698e-014 9.19379e-015
lhumerus 21.7991 4.47256 62.5726
lradius 72.3824
lwrist 48.2741
lhand 8.35159 34.6609
lfingers 7.12502
lthumb 33.5613 61.541
rfemur -30.7471 -10.9473 21.7045
rtibia 39.5367
rfoot -22.3429 -9.7555
rtoes -3.17607
lfemur -47.0099 6.44556 -23.5688
ltibia 60.9212
lfoot -11.1318 10.4152
ltoes -21.978
751
root -0.982233 17.4168 0.0834137 12.5487 -3.83721 4.03525
lowerback -21.5098 1.34359 -3.08025
upperback 6.43847 3.02337 -1.5155
thorax 19.2325 1.04973 1.15321
lowerneck 23.1808 -2.59779 -4.80724
upperneck 0.815172 -3.80133 14.1622
head -3.09133 -2.68464 5.60197
rclavicle -5.86415e-015 -1.58034e-014
rhumerus 6.8824 -17.5214 -58.0768
rradius 95.0275
rwrist -35.5558
rhand 27.2599 12.4598
rfingers 7.12502
rthumb 51.2275 -8.09372
lclavicle -5.86415e-015 -1.58034e-014
lhumerus 21.8449 4.61288 62.5311
lradius 72.4129
lwrist 48.2615
lhand 8.58682 35.0648
lfingers 7.12502
lthumb 33.7848 61.8961
rfemur -30.574 -10.8842 21.4864
rtibia 39.6057
rfoot -22.7683 -9.94657
rtoes -2.70836
lfemur -48.2188 6.5076 -24.7299
ltibia 60.9759
lfoot -10.1908 10.5597
ltoes -20.1787
752
root -1.01751 17.4242 0.0950795 12.4487 -3.92403 4.35153
lowerback -21.4187 1.37191 -3.09751
upperback 6.46297 3.07154 -1.55714
thorax 19.2106 1.07252 1.13142
lowerneck 23.0156 -2.66675 -4.87972
upperneck 0.980808 -3.92644 14.1657
head -3.00282 -2.73541 5.61575
rclavicle -2.05245e-014 -1.21259e-014
rhumerus 6.88323 -17.6732 -58.0062
rradius 95.0044
rwrist -35.8544
rhand 27.1323 12.0298
rfingers 7.12502
rthumb 51.1113 -8.58932
lclavicle -2.05245e-014 -1.21259e-014
lhumerus 22.1656 4.71349 62.5624
lradius 72.133
lwrist 48.1672
lhand 8.74872 34.804
lfingers 7.12502
lthumb 33.9386 61.6014
rfemur -30.4543 -10.8867 21.2443
rtibia 39.6303
rfoot -23.1961 -10.6127
rtoes -4.14362
lfemur -49.4582 6.79319 -26.0905
ltibia 60.8885
lfoot -10.0313 9.83776
ltoes -21.7179
753
root -1.05625 17.4251 0.0992311 12.3993 -3.93076 4.64551
lowerback -21.3252 1.3421 -3.22553
upperback 6.08215 3.04354 -1.5176
thorax 19.3094 1.06256 1.16221
lowerneck 23.2955 -2.64688 -5.13204
upperneck 0.9423 -3.9548 14.3722
head -3.04698 -2.77105 5.73719
rclavicle 1.70955e-014 5.1684e-015
rhumerus 6.55013 -17.6914 -57.7985
rradius 95.123
rwrist -36.1017
rhand 27.3039 12.3477
rfingers 7.12502
rthumb 51.2676 -8.18315
lclavicle 1.70955e-014 5.1684e-015
lhumerus 22.4183 4.79287 62.6841
lradius 71.6558
lwrist 47.9815
lhand 8.86334 33.3625
lfingers 7.12502
lthumb 34.0475 60.1357
rfemur -30.3919 -10.8663 21.0708
rtibia 39.6006
rfoot -23.0645 -11.5862
rtoes -7.11596
lfemur -50.8271 7.1384 -27.4957
ltibia 60.7494
lfoot -8.7601 9.44468
ltoes -21.6361
